<svg width="220" height="40" viewBox="0 0 220 40" fill="none" xmlns="http://www.w3.org/2000/svg">
<circle cx="110" cy="20" r="20" fill="#160042"/>
<path d="M116.215 18.0547L114.82 16.6602C114.574 16.4141 114.246 16.25 113.891 16.25H113.125V14.9375C113.125 14.2266 112.523 13.625 111.812 13.625H110.117C109.871 13.1328 109.352 12.75 108.75 12.75C108.121 12.75 107.602 13.1328 107.355 13.625H105.688C104.949 13.625 104.375 14.2266 104.375 14.9375V22.8125C104.375 23.5508 104.949 24.125 105.688 24.125H107.875V25.4375C107.875 26.1758 108.449 26.75 109.188 26.75H115.312C116.023 26.75 116.625 26.1758 116.625 25.4375V18.9844C116.625 18.6289 116.461 18.3008 116.215 18.0547ZM113.918 17.6172L115.258 18.957C115.285 18.9844 115.312 19.0117 115.312 19.0664V19.3125H113.562V17.5625H113.809C113.863 17.5625 113.891 17.5898 113.918 17.6172ZM108.75 13.7891C108.996 13.7891 109.242 14.0352 109.242 14.2812C109.242 14.5547 108.996 14.7734 108.75 14.7734C108.477 14.7734 108.258 14.5547 108.258 14.2812C108.258 14.0352 108.477 13.7891 108.75 13.7891ZM107.875 17.5625V22.8125H105.852C105.742 22.8125 105.688 22.7578 105.688 22.6484V15.1016C105.688 15.0195 105.742 14.9375 105.852 14.9375H107.355C107.602 15.457 108.121 15.8125 108.75 15.8125C109.352 15.8125 109.871 15.457 110.117 14.9375H111.648C111.73 14.9375 111.812 15.0195 111.812 15.1016V16.25H109.188C108.449 16.25 107.875 16.8516 107.875 17.5625ZM115.148 25.4375H109.352C109.242 25.4375 109.188 25.3828 109.188 25.2734V17.7266C109.188 17.6445 109.242 17.5625 109.352 17.5625H112.25V19.9688C112.25 20.3516 112.523 20.625 112.906 20.625H115.312V25.2734C115.312 25.3828 115.23 25.4375 115.148 25.4375Z" fill="white"/>
<circle cx="65" cy="20" r="20" fill="#160042"/>
<path d="M71.5625 20.625H69.0195L70.3047 19.3672C71.125 18.5469 70.5234 17.125 69.375 17.125H67.625V14.0625C67.625 13.3516 67.0234 12.75 66.3125 12.75H63.6875C62.9492 12.75 62.375 13.3516 62.375 14.0625V17.125H60.625C59.4492 17.125 58.8477 18.5469 59.6953 19.3672L60.9531 20.625H58.4375C57.6992 20.625 57.125 21.2266 57.125 21.9375V25.4375C57.125 26.1758 57.6992 26.75 58.4375 26.75H71.5625C72.2734 26.75 72.875 26.1758 72.875 25.4375V21.9375C72.875 21.2266 72.2734 20.625 71.5625 20.625ZM60.625 18.4375H63.6875V14.0625H66.3125V18.4375H69.375L65 22.8125L60.625 18.4375ZM71.5625 25.4375H58.4375V21.9375H62.2656L64.0703 23.7422C64.5625 24.2617 65.4102 24.2617 65.9023 23.7422L67.707 21.9375H71.5625V25.4375ZM69.1562 23.6875C69.1562 24.0703 69.4297 24.3438 69.8125 24.3438C70.168 24.3438 70.4688 24.0703 70.4688 23.6875C70.4688 23.332 70.168 23.0312 69.8125 23.0312C69.4297 23.0312 69.1562 23.332 69.1562 23.6875Z" fill="white"/>
<circle cx="20" cy="20" r="20" fill="#160042"/>
<path d="M26.2148 14.5547L24.8203 13.1602C24.5742 12.9141 24.2461 12.75 23.8906 12.75H19.1875C18.4492 12.75 17.875 13.3516 17.875 14.0625V15.375H15.6875C14.9492 15.375 14.375 15.9766 14.375 16.6875V25.4375C14.375 26.1758 14.9492 26.75 15.6875 26.75H21.8125C22.5234 26.75 23.125 26.1758 23.125 25.4375V24.125H25.3125C26.0234 24.125 26.625 23.5508 26.625 22.8125V15.4844C26.625 15.1289 26.4609 14.8008 26.2148 14.5547ZM21.6484 25.4375H15.8516C15.7422 25.4375 15.6875 25.3828 15.6875 25.2734V16.8516C15.6875 16.7695 15.7422 16.6875 15.8516 16.6875H17.875V22.8125C17.875 23.5508 18.4492 24.125 19.1875 24.125H21.8125V25.2734C21.8125 25.3828 21.7305 25.4375 21.6484 25.4375ZM25.1484 22.8125H19.3516C19.2422 22.8125 19.1875 22.7578 19.1875 22.6484V14.2266C19.1875 14.1445 19.2422 14.0625 19.3516 14.0625H22.25V16.4688C22.25 16.8516 22.5234 17.125 22.9062 17.125H25.3125V22.6484C25.3125 22.7578 25.2305 22.8125 25.1484 22.8125ZM25.3125 15.8125H23.5625V14.0625H23.8086C23.8633 14.0625 23.8906 14.0898 23.918 14.1172L25.2578 15.457C25.2852 15.4844 25.3125 15.5117 25.3125 15.5664V15.8125Z" fill="white"/>
<circle cx="155" cy="20" r="20" fill="#160042"/>
<path d="M156.703 24.125H157.359C157.523 24.125 157.688 23.9883 157.688 23.7969V17.8906C157.688 17.7266 157.523 17.5625 157.359 17.5625H156.703C156.512 17.5625 156.375 17.7266 156.375 17.8906V23.7969C156.375 23.9883 156.512 24.125 156.703 24.125ZM161.188 14.9375H158.918L157.988 13.4062C157.77 13.0234 157.332 12.75 156.867 12.75H154.105C153.641 12.75 153.203 13.0234 152.984 13.4062L152.055 14.9375H149.812C149.566 14.9375 149.375 15.1562 149.375 15.375V15.8125C149.375 16.0586 149.566 16.25 149.812 16.25H150.25V25.4375C150.25 26.1758 150.824 26.75 151.562 26.75H159.438C160.148 26.75 160.75 26.1758 160.75 25.4375V16.25H161.188C161.406 16.25 161.625 16.0586 161.625 15.8125V15.375C161.625 15.1562 161.406 14.9375 161.188 14.9375ZM154.051 14.1445C154.078 14.1172 154.133 14.0625 154.188 14.0625C154.188 14.0625 154.188 14.0625 154.215 14.0625H156.785C156.84 14.0625 156.895 14.1172 156.922 14.1445L157.387 14.9375H153.586L154.051 14.1445ZM159.438 25.4375H151.562V16.25H159.438V25.4375ZM153.641 24.125H154.297C154.461 24.125 154.625 23.9883 154.625 23.7969V17.8906C154.625 17.7266 154.461 17.5625 154.297 17.5625H153.641C153.449 17.5625 153.312 17.7266 153.312 17.8906V23.7969C153.312 23.9883 153.449 24.125 153.641 24.125Z" fill="white"/>
<circle cx="200" cy="20" r="20" fill="#160042"/>
<path d="M203.5 19.3125C203.5 19.1484 203.336 18.9844 203.172 18.9844H200.766V16.5781C200.766 16.4141 200.602 16.25 200.438 16.25H199.562C199.371 16.25 199.234 16.4141 199.234 16.5781V18.9844H196.828C196.637 18.9844 196.5 19.1484 196.5 19.3125V20.1875C196.5 20.3789 196.637 20.5156 196.828 20.5156H199.234V22.9219C199.234 23.1133 199.371 23.25 199.562 23.25H200.438C200.602 23.25 200.766 23.1133 200.766 22.9219V20.5156H203.172C203.336 20.5156 203.5 20.3789 203.5 20.1875V19.3125ZM206.781 19.75C206.781 16.0039 203.746 12.9688 200 12.9688C196.254 12.9688 193.219 16.0039 193.219 19.75C193.219 23.4961 196.254 26.5312 200 26.5312C203.746 26.5312 206.781 23.4961 206.781 19.75ZM205.469 19.75C205.469 22.7852 203.008 25.2188 200 25.2188C196.965 25.2188 194.531 22.7852 194.531 19.75C194.531 16.7422 196.965 14.2812 200 14.2812C203.008 14.2812 205.469 16.7422 205.469 19.75Z" fill="white"/>
</svg>
