<?xml version="1.0" encoding="utf-8"?>
<svg xmlns="http://www.w3.org/2000/svg" version="1.1" viewBox="0 0 750 750">
<defs>
<clipPath id="clip_0">
<path d="M0 750H750V0H0Z" transform="matrix(1,0,0,-1,0,750)"/>
</clipPath>
</defs>
<g data-name="Layer 1" id="layer_1">
<path d="M25.5 724.5H724.5V25.5H25.5Z" fill="transparent" transform="matrix(1,0,0,-1,0,750)"/>
<g clip-path="url(#clip_0)">
<path d="M0 0-6.364-25.457C-9.547-35.003-14.85-40.307-22.274-40.307H-51.975V-6.364 20.153H-13.789V32.881H-50.914V93.341H-27.578C-21.214 94.402-14.85 89.099-13.789 82.734L-6.364 56.217C-3.183 56.217 0 56.217 3.182 57.277V100.766H-94.402V93.341H-80.613V-39.246H-116.677V93.341H-101.827V100.766H-161.226V93.341H-146.376V32.881H-190.926V93.341H-176.076V100.766H-357.456L-358.516 56.217C-355.334 56.217-352.152 55.156-348.97 55.156L-341.545 83.795C-339.423 91.22-336.242 93.341-327.756 93.341H-312.906V-39.246H-333.06V-47.731H-261.993V-39.246H-283.207V93.341H-267.296C-257.75 93.341-256.689 91.22-254.568 83.795L-247.143 55.156C-243.961 55.156-240.779 56.217-237.597 56.217V93.341H-221.686V-39.246H-238.657V-47.731H-177.137V-39.246H-191.986V21.214H-147.437V-39.246H-162.287V-47.731H7.425L9.546-2.122Z" fill="#000000" transform="matrix(1,0,0,-1,414.7764,157.02643)"/>
<path d="M0 0-12.729-1.061C-23.335-4.243-35.003-7.425-46.671-7.425-82.734-7.425-111.374 16.971-111.374 66.824-111.374 106.07-86.978 146.376-45.61 146.376-30.76 147.437-15.911 144.255-3.182 137.891V98.645L-13.789 96.523C-20.153 121.98-26.518 136.83-45.61 136.83-71.067 136.83-79.552 106.07-79.552 71.067-79.552 19.093-65.763 3.182-45.61 3.182-40.307 3.182-35.003 4.243-29.7 6.364V47.731H-43.489V56.217H0V0" fill="#000000" transform="matrix(1,0,0,-1,171.8765,363.8628)"/>
<path d="M0 0H15.911V132.587H1.061V141.073H62.581V132.587H45.61C45.61 15.911 45.61 1.061 44.549 0H65.763C74.249 0 78.492 4.243 81.674 14.85L90.16 40.307C93.341 40.307 95.463 40.307 99.706 39.246L96.523-8.485H0V0" fill="#000000" transform="matrix(1,0,0,-1,180.3618,360.6807)"/>
<path d="M0 0C0 42.428 19.092 78.492 61.521 78.492 99.706 78.492 123.041 50.914 123.041 3.182 123.041-39.246 103.948-75.31 61.521-75.31 25.457-75.31 0-49.853 0 0M91.22 1.061C91.22 60.46 73.188 67.885 61.521 67.885 44.549 67.885 31.821 51.974 31.821 2.122 31.821-53.035 47.731-64.703 61.521-64.703 76.37-64.703 91.22-50.914 91.22 1.061" fill="#000000" transform="matrix(1,0,0,-1,281.1284,295.978)"/>
<path d="M0 0H-62.581V8.486H-46.671V140.012H-62.581V148.498H-1.061C29.699 148.498 46.671 133.648 46.671 110.313 44.55 94.402 32.882 81.674 18.032 77.431V76.37C36.063 73.188 48.792 57.278 49.853 39.246 48.792 15.911 30.761 0 0 0M-16.971 80.613H1.061C11.668 80.613 16.971 93.341 16.971 107.13 16.971 130.466 8.485 140.012-2.121 140.012H-16.971ZM0 72.127H-16.971V12.729C-16.971 9.546-16.971 7.425-14.85 7.425H0C10.607 7.425 19.093 12.729 19.093 39.246 19.093 57.278 14.85 72.127 0 72.127" fill="#000000" transform="matrix(1,0,0,-1,470.9932,368.1055)"/>
<path d="M0 0-2.122-45.61H-109.252V-37.124H-90.16V94.402H-103.949V102.888H-6.364V59.399C-9.547 59.399-12.729 59.399-15.911 58.338L-23.336 83.795C-24.396 90.16-30.761 95.463-37.125 94.402H-60.46V33.942H-22.275V21.214H-60.46V-5.303-39.246H-30.761C-23.336-39.246-18.032-33.942-14.851-24.396L-8.486 1.061 0 0" fill="#000000" transform="matrix(1,0,0,-1,632.2197,322.4956)"/>
<path d="M0 0C-3.182 0-5.304 2.122-5.304 6.364V132.588C26.518 132.588 42.428 112.435 42.428 66.824 42.428 21.214 29.699 0 0 0M-259.871 56.217-243.961 111.374-228.05 56.217ZM6.364 141.073H-94.402V133.648C-78.492 133.648-76.371 129.405-76.371 120.92V46.671C-95.463 78.492-113.495 109.252-132.587 141.073H-171.833V133.648C-165.469 131.526-161.226 127.284-156.983 121.98V14.85C-156.983 2.122-163.348 0-169.712 0H-181.379L-223.808 141.073H-245.021C-250.325 118.799-283.207 16.972-283.207 16.972-285.328 7.425-290.631 0-300.178 0V-7.425H-253.507V0H-254.568C-267.296 1.061-271.539 1.061-271.539 10.607-271.539 13.789-271.539 18.032-270.478 21.214L-263.053 47.731H-228.05L-214.261 0H-229.111V-7.425H-126.223V0C-144.255 0-145.316 5.304-145.316 14.85V106.07C-123.041 67.885-100.767 29.7-77.431-8.485H-65.764V120.92C-65.764 130.466-60.46 132.588-48.792 133.648H-33.942V0H-49.853V-7.425H9.546C53.035-7.425 77.431 26.518 77.431 68.945 79.552 107.131 50.913 138.952 13.789 141.073Z" fill="#000000" transform="matrix(1,0,0,-1,353.2559,524.0283)"/>
<path d="M0 0 15.911 55.157 31.821 0ZM147.437 77.432V85.917H88.038V77.432H101.827V-55.156H79.552L37.125 85.917H15.911C10.607 63.643-22.274-38.185-22.274-38.185-25.457-46.67-29.699-54.095-37.125-55.156H-48.792L-57.277 77.432H-40.307V85.917H-85.917L-113.495 6.364C-123.041 32.882-132.587 59.399-141.073 85.917H-189.865V77.432C-175.015 77.432-173.955 75.31-173.955 60.46V59.399C-175.015 32.882-178.197-15.91-180.318-43.488-180.318-49.853-185.622-54.095-199.411-55.156V-62.581H-147.437V-55.156C-166.529-55.156-168.651-48.792-168.651-43.488-168.651-41.367-167.59-21.214-167.59-3.182-166.529 22.275-165.469 39.246-165.469 65.764V64.703C-152.74 28.64-140.012-7.425-127.284-42.428L-121.98-40.306C-110.313-6.363-97.584 25.457-84.856 58.339L-79.552-55.156H-94.402V-63.642H6.364V-55.156C-6.364-54.095-10.607-54.095-10.607-44.549-10.607-41.367-10.607-37.124-9.546-33.941L-2.121-7.425H33.942L47.731-55.156H30.76V-63.642H147.437V-55.156H133.648V77.432Z" fill="#000000" transform="matrix(1,0,0,-1,252.4893,632.2197)"/>
<path d="M0 0-8.485-25.456C-11.668-36.063-15.91-40.307-24.396-40.307H-45.61C-44.549-39.245-44.549-24.396-44.549 92.281H-28.639V100.767H-91.22V92.281H-76.37V-40.307H-91.22V-48.792H5.304L8.485-1.061C5.304-1.061 3.183-1.061 0 0" fill="#000000" transform="matrix(1,0,0,-1,498.5713,647.0693)"/>
<path d="M0 0C-1.061 0-2.121 0-3.182-1.061V-2.121C-3.182-3.182-3.182-4.243-1.061-5.304H0C5.304-5.304 11.668 3.183 15.911 9.546 18.032 12.729 18.032 13.789 19.093 13.789 20.153 13.789 21.215 13.789 22.275 11.668 28.64 3.183 39.246-1.061 48.793 0 48.793 1.061 46.671 2.121 45.61 3.183 45.61 3.183 40.307 7.425 47.731 9.546 55.156 11.668 58.339 8.485 64.703 13.789 64.703 15.91 61.521 15.91 61.521 15.91 61.521 15.91 57.278 18.032 70.007 22.274 76.371 24.396 76.371 24.396 75.31 25.457 74.249 26.518 71.067 27.578 75.31 30.761 79.553 33.942 82.735 37.125 82.735 39.246 82.735 41.367 79.553 40.307 77.432 39.246 74.249 38.186 71.067 39.246 68.945 41.367 66.824 44.55 64.703 43.488 62.582 41.367 60.46 39.246 55.156 37.125 53.035 41.367 50.914 45.61 51.975 44.55 56.218 51.975 58.339 56.217 60.46 60.46 60.46 64.703 60.46 65.764 60.46 66.824 56.218 64.703 51.975 62.581 51.975 78.492 51.975 80.613 51.975 80.613 51.975 84.855 49.854 80.613 46.671 76.37 42.429 73.188 38.186 70.006 36.064 68.945 31.821 71.066 32.882 74.249 33.942 77.431 30.761 76.37 29.7 74.249 27.578 66.824 24.396 60.46 22.275 53.035 21.215 51.975 20.153 49.853 16.972 54.096 13.789 58.339 10.607 68.945 6.364 63.642 5.304 64.703-2.121 74.249-7.425 74.249-8.485 73.188-7.425 71.066-5.303 70.006-4.242 67.885-4.242 64.703-5.303 62.581-6.363 59.399-6.363 56.217-5.303 53.035-4.242 50.914-5.303 48.792-10.606 47.731-15.91 46.671-14.85 45.61-12.728 43.488L-2.121 32.882C0 30.761-2.121 28.639-5.303 27.578-8.485 26.518-11.667 29.699-12.728 28.639-13.789 27.578-10.606 27.578-9.546 26.518-8.485 25.457-3.182 15.91 4.243 16.972 11.668 18.032 12.729 16.972 11.668 13.789 10.607 10.607 5.304 0 0 0" fill="#000000" transform="matrix(1,0,0,-1,535.6953,627.9766)"/>
</g>
</g>
</svg>