<?xml version="1.0" encoding="utf-8"?>
<svg xmlns="http://www.w3.org/2000/svg" height="83" version="1.2" width="600">
  <g class="layer">
    <path d="M110.8 12.94q-1.96 14.13-4.37 29.82c-.56 3.65-.83 8.45 3.6 9.81q.56.17.5.76-.04.38-.37.6-.15.1-.33.09-5.1-.04-10.04-.07-3.57-.02-.47-1.78 3.43-1.95 4.21-6.89 2.07-13.27 4.65-30.44c.43-2.82.8-6.62-2.25-8.01q-.64-.29-.41-.95.14-.39.05-.78-.17-.7.54-.7l9.34-.04a.64.62-7.9 0 1 .61.45q5.39 18.54 10.49 36.03.28.95.39 1.89.28 2.4.92.07L138.2 4.83q.14-.51.67-.5l8.79.16q.43.01.53.43.13.58.02 1.19-.07.43-.47.58-2.68 1.01-2.28 3.81 2.59 18.27 5.2 36.55.26 1.83 1.74 4.39.26.44.74.6.38.12.7.35.75.54.28 1.28-.21.31-.58.31l-11.72-.01a.83.72-28.3 0 1-.35-.08q-.56-.25-.47-.7.1-.51.58-.68 2.68-.96 2.3-3.92-2.21-17.26-4.76-33.48-.1-.6-.01-1.2.09-.59-.09-1.13-.3-.94-.56.02l-11.07 41.04q-.14.53-.68.64-1.26.25-2.59-.02-.43-.09-.56-.51L111.3 12.9q-.34-1.14-.5.04zM354.72 7.29l-1.34-.67q-.4-.2-.54-.63-.15-.48-.05-.99.11-.58.7-.58l11.96-.05a.83.82 86.6 0 1 .83.74q.16 1.45-1.31 1.81a2.4 2.39-6.8 0 0-1.82 2.31l-.02 39.54a2.55 2.54-86.6 0 0 2.24 2.53q5.48.65 11.74-.44c4.01-.7 6.97-3.47 9.01-6.82a1.39 1.37 19.5 0 1 1.38-.65q.96.14.73 1.13-1.06 4.5-2.3 8.93-.16.56-.74.55-15.33-.11-31.52.01-.45.01-.77-.24-.22-.17-.19-.42.06-.48.52-.65 2.64-.92 2.66-4.09.08-18.28.06-35.83-.01-2.58-.64-4.79-.14-.48-.59-.7z" fill="#000000"/>
    <path d="M17.11 17.68q5.4-3.51 11.26-6.39 2.92-1.42 5.9-.62 4.47 1.2 4.16 6.62-.06.95.73.41 6.56-4.48 11.97-6.61 5.86-2.31 8.51 2.87.89 1.74.85 4.58-.21 15.69-.03 28.63.03 2.85 2.46 3.94.6.27.8.58.17.27.17.56 0 .58-.59.58l-12.76-.03q-.53-.01-.76-.49-.35-.75.4-1.05c1.6-.64 2.89-2.29 2.89-4.01q-.02-13.16 0-25.98.01-2.82-1.89-4.45-.3-.26-.7-.29-4.15-.26-7.63 1.72-1.65.93-3.42 1.68a1.53 1.53 0 0 0-.93 1.39q-.03 13.09.05 25.5.02 3.24 2.82 4.56.5.24.62.78.03.17-.07.32-.19.28-.53.28l-12.6.11a1.06 1.05-13 0 1-.97-.6q-.36-.74.43-1.08 2.73-1.16 2.76-4.43.1-13.01.03-25.99-.01-2.46-1.73-3.86-.4-.33-.92-.38-2.66-.24-4.75.64-2.89 1.22-6.18 2.77a1.93 1.92 77.4 0 0-1.1 1.74q.04 11.56-.01 23.51c0 1.76.2 5.37 2.44 5.73a.98.95 68.3 0 1 .45.2q.53.4.5.89-.05.82-.86.82l-12.63-.04q-.58 0-.76-.55-.07-.22.01-.45.15-.45.57-.55 2.9-.75 2.94-5.5.09-11.65.08-22.49c0-2.04-.03-5.54-2.84-5.84q-.55-.05-.92-.46-.17-.17-.14-.4.05-.51.54-.63 4.73-1.14 8.62-4.85 2.07-1.97 2.05.89l-.04 5.31q-.01.9.75.41z" fill="#000000"/>
    <path d="M175.09 55.1a22.42 19.34 92.9 0 1-18.19-23.37 22.42 19.34 92.9 0 1 20.45-21.41 22.42 19.34 92.9 0 1 18.19 23.37 22.42 19.34 92.9 0 1-20.45 21.41zm6.02-2.89c7.44-2.88 7.62-16.07 7.45-22.54-.22-8.39-2.69-18.09-13.22-17.54-4.43.23-8.05 3.82-9.43 7.7q-3.38 9.55-1.19 22.05c1.49 8.55 7.63 13.72 16.39 10.33zM409.3 55.08A22.4 19.34 92.6 0 1 391 31.82a22.4 19.34 92.6 0 1 20.34-21.5 22.4 19.34 92.6 0 1 18.3 23.26 22.4 19.34 92.6 0 1-20.34 21.5zm-9.71-34.13q-2.49 7.93-1.07 19.77c.9 7.46 5.34 13.53 13.73 12.33 6.5-.93 8.99-6.59 9.83-12.42 1.35-9.4 2-30.56-13.55-28.36-4.6.64-7.65 4.6-8.94 8.68zM329.44 34.48l-5.63-.08a.56.55-89.5 0 0-.56.56q-.03 7.18.05 13.54.02 1.63.7 3.38.21.57.82.6.6.02 1 .44a.64.64 0 0 1-.48 1.09q-5.1-.13-10.17.04-.49.02-.8-.32-.14-.16-.12-.38.07-.54.6-.69 2.15-.6 2.15-2.9.01-17.92.03-34.09 0-2.45-2.3-3.07-.41-.1-.47-.5-.09-.55.47-.6 9.72-.9 17.49-.74c6.21.13 14.66 3.23 16.13 10.09 1.52 7.07-4.75 12.01-11.08 12.88a.58.58 0 0 0-.47.78c2.95 7.99 6.24 16.04 11.84 22.33q2.58 2.89-.89 1.17c-8.43-4.17-14.41-13.89-17.77-23.15a.58.57 79.8 0 0-.54-.38zm3.36-21.9c-3.18-.51-9.5-.65-9.51 3.93q-.03 7.77-.07 15.4a.61.61 0 0 0 .53.62c6.72.92 17.89.32 18.1-9.23q.2-9.22-9.05-10.72z" fill="#000000"/>
    <path d="M436.35 50.37c.39-9.89.27-22.39.04-35.59-.03-1.22-1.29-2.02-2.34-2.35q-.47-.14-.24-.57.23-.44.72-.45c14.61-.26 31.44-3.67 36.97 14.89 2.04 6.84 1.15 15.76-4.09 21.23-4.65 4.85-11.35 6.57-17.95 6.48q-7.53-.11-14.77 0-.43.01-.76-.26-.24-.19-.17-.48.09-.39.47-.52 2.06-.69 2.12-2.38zm6.37-33.63.06 31.62a3.83 3.83 0 0 0 3.83 3.82h4.72a15.04 14.35 89.9 0 0 14.33-15.07l-.02-9.2a15.04 14.35 89.9 0 0-14.37-15.01h-4.72a3.83 3.83 0 0 0-3.83 3.84zM219.24 14.16q-.27 19.76.1 36.05.06 2.4 2.25 2.48.46.01.39.47l-.05.35q-.06.45-.51.45l-10.65.05q-.42 0-.63-.37-.07-.13-.03-.29.14-.59.69-.82 2.02-.85 2.02-3.05.03-17.03.01-34.95a.99.98 2.9 0 0-.89-.98q-8.73-.87-12.68 6.34-.42.76-1.18.33a.81.79 22.7 0 1-.38-.9l1.97-7.35q.16-.6.78-.6h31.08q.67 0 .85.65l2.01 7.4a.75.75 0 0 1-.48.91q-.32.1-.61-.01-.48-.18-.71-.63-3.87-7.18-12.81-6.12-.53.06-.54.59zM245.38 32.02q-.01 8.04.02 15.85.01 1.68.33 3.37.11.55.61.77l1.52.68q.45.21.31.68-.21.67-.95.65-5.38-.14-9.95.04-.57.02-.74-.52-.17-.53.35-.72 2.31-.84 2.33-3.4.13-15.54.01-33.74-.01-2.48-2.26-3.17-.32-.1-.5-.4-.12-.21.06-.51a.46.45 15 0 1 .39-.22l10.63-.01q.54 0 .72.52.05.18-.05.36-.15.25-.42.34c-2.65.95-2.26 3.09-2.33 5.49q-.14 5.13-.08 10.41a.95.94 89.4 0 0 .94.93l17.92.01q.53 0 .53-.53.03-5.5-.04-10.44c-.04-2.6.53-4.9-2.44-5.98q-.82-.3-.15-.86.29-.24.68-.25 5.67-.03 10.64.05.53.01.42.52l-.07.36a.32.31 5.5 0 1-.31.25q-1.51.03-2.06 1.31-.63 1.47-.64 3.04-.04 15.28.02 30.71c0 1.89.11 5.08 2.66 5.04q.42 0 .35.42l-.08.41a.67.66 6 0 1-.68.54q-5.04-.17-10.15.06-.41.02-.73-.19-.2-.14-.26-.37-.15-.6.44-.78 2.34-.73 2.36-3.28.07-8.71.03-17.35a.73.73 0 0 0-.74-.73l-18 .01q-.64 0-.64.63zM286.82 31.61q-.24 8.88.07 17.76a2.51 2.5 0 0 0 2.42 2.41q5.53.2 10.39-.11 5.99-.38 10-6.54.26-.4.74-.36.49.04.74.49t.09.95q-1.09 3.5-2.08 7.2-.14.54-.7.54l-29.97.03q-.47.01-.6-.45l-.07-.28q-.08-.29.21-.39 2.62-.84 2.64-3.8.12-16.6-.02-33.03-.02-2.5-2.32-3.49-.5-.22-.39-.74.07-.41.5-.41 14.71-.05 28.66.01.76 0 .81.76.24 3.35.67 6.65.06.43-.24.77a.67.67 0 0 1-1.11-.17q-2.32-5.2-7.83-5.69-4.86-.42-10.45-.22-2.21.09-2.21 2.3l-.01 12.42q0 .54.54.55 4.65.15 9.63-.18 4.2-.27 5.64-3.74.2-.48.64-.23a.81.8 16.7 0 1 .41.75q-.2 3.93 0 7.55.23 4-1.87.59c-.68-1.1-1.93-2.14-3.26-2.25q-5.46-.45-10.99-.33-.66.02-.68.68zM486.36 28.72c2.93.18 11.28.58 13.41-1.38q1.08-.99 1.7-2.34.18-.41.62-.37.19.02.32.16.17.18.16.42-.09 4.48-.02 9.26a.55.55 0 0 1-.71.53c-.77-.23-1.34-2.06-2.07-2.78q-.87-.87-2.15-.98-5.57-.45-11.29-.33-.57.01-.57.58v17.49q0 2.67 2.67 2.78 4.24.18 8.77.04 7.35-.23 11.32-6.62a1.02 1.02 0 0 1 .81-.48q.59-.03.89.55a.82.81 39.8 0 1 .06.6l-2.2 7.44q-.19.65-.88.66l-29.79.04q-.58 0-.6-.58l-.02-.42a.36.35-4.2 0 1 .33-.37q2.48-.19 2.51-2.95.2-16.61-.01-34.5a2.11 2.01-86.5 0 0-1.73-2.05q-.36-.06-1.04-.93a.51.51 0 0 1 .41-.82h28.93a.83.83 0 0 1 .83.77q.23 3.34.55 6.62.03.31-.07.51-.14.29-.44.4a.75.74-21.9 0 1-.96-.4q-1.91-4.45-5.95-5.2c-4.17-.77-8.78-.74-12.98-.4a1.49 1.49 0 0 0-1.37 1.47l-.08 12.9q-.01.64.64.68z" fill="#000000"/>
    <path d="M86.63 41.3q.64-3.21 2.19-7.23 1.15-2.98 4.35-13.63c.52-1.76.3-3.15.06-4.88a1.77 1.69-74.3 0 0-.57-1.07q-.61-.55-1.28-1.03-2.33-1.71.55-1.85 4.58-.22 9.2-.02 2.6.12.58 1.75c-2.8 2.25-4.38 5.45-5.56 8.7q-6.59 18.2-13.13 36.5-3.13 8.77-6.79 15.1-3.02 5.23-8.74 3.59c-4.04-1.16-3.82-6.7.02-8.04q.59-.21 1.18-.03l3.47 1.02a3 3 0 0 0 3.52-1.5q3.74-7.26 5.86-14.86c.49-1.77-.71-3.7-1.26-5.36q-5.52-16.49-10.96-31.81-.65-1.82-2.19-2.88-3.26-2.23.62-2.23H79.3a.73.72 82.8 0 1 .7.55q.12.5-.18.93-.25.35-.67.45c-1.3.34-2.16 1.6-1.72 2.95q4.26 13.06 8.04 24.95.7 2.19 1.16-.07z" fill="#000000"/>
    <path d="M181.11 52.21c-8.76 3.39-14.9-1.78-16.39-10.33q-2.19-12.5 1.19-22.05c1.38-3.88 5-7.47 9.43-7.7 10.53-.55 13 9.15 13.22 17.54.17 6.47-.01 19.66-7.45 22.54zM332.8 12.58q9.25 1.5 9.05 10.72c-.21 9.55-11.38 10.15-18.1 9.23a.61.61 0 0 1-.53-.62q.04-7.63.07-15.4c.01-4.58 6.33-4.44 9.51-3.93zM399.59 20.95c1.29-4.08 4.34-8.04 8.94-8.68 15.55-2.2 14.9 18.96 13.55 28.36-.84 5.83-3.33 11.49-9.83 12.42-8.39 1.2-12.83-4.87-13.73-12.33q-1.42-11.84 1.07-19.77zM442.72 16.74a3.83 3.83 0 0 1 3.83-3.84h4.72a15.04 14.35 89.9 0 1 14.37 15.01l.02 9.2a15.04 14.35 89.9 0 1-14.33 15.07h-4.72a3.83 3.83 0 0 1-3.83-3.82l-.06-31.62z" fill="#fff"/>
    <path d="M534.21 52.53q4.65-.12 7.25-4.37a.32.31 32.3 0 1 .45-.1l.23.15q.4.27.14.68-4.59 7.2-13.02 5.19c-3.39-.81-6.52-4.34-7.21-7.87-2.38-12.31 7.04-22.49 19.1-14.53q.45.3.16.74-.65 1.02-.86 2.22-.44 2.52-1.54.21c-2.14-4.47-7.18-6.77-11.09-2.84q-1.8 1.81-2.47 5.51c-1.03 5.72 1.21 15.21 8.86 15.01z" fill="#000000"/>
    <path d="M554.77 54.65a12.89 11.12 93.4 0 1-10.34-13.53 12.89 11.12 93.4 0 1 11.86-12.21 12.89 11.12 93.4 0 1 10.34 13.53 12.89 11.12 93.4 0 1-11.86 12.21zm-5.33-5.87q1.27 4.32 5.63 4.58 5.32.32 6.75-5.13c1.14-4.35 1.66-12.72-1.81-16.47-3.13-3.36-8.57-1.94-10.11 2.23q-2.67 7.23-.46 14.79z" fill="#000000"/>
    <path d="M586.88 35.48q-1.99 8.22-4.45 16.48-1.56 5.22-3.09-.01l-5.15-17.5q-.51-1.73-.74.06-.64 4.94-1.33 10.42c-.38 3.09-2.03 6.34 1.06 8.57q.86.63-.2.61l-5.24-.08q-.71-.01-.25-.56c.51-.6 1.42-1.13 1.73-1.86q.59-1.44.98-3.84 1.32-8.02 2.28-15.59a1.06 1.03-67 0 0-.36-.93l-.82-.68q-1.28-1.07.39-1.07h4.05a.9.89-8.2 0 1 .86.64L581.45 47q.52 1.81 1.01-.01l4.58-16.77q.18-.67.87-.7 1.88-.08 3.8.02 1.68.08.2.88-1.09.59-.91 1.84 1.4 9.82 2.79 19.31a1.17 1.15-80.8 0 0 .6.85q.63.33.98.92.43.71-.41.71l-5.74.01q-.81 0-.23-.58.64-.63 1.02-1.41.22-.46.15-.96l-2.18-15.58q-.41-2.91-1.1-.05z" fill="#000000"/>
    <path d="M549.44 48.78q-2.21-7.56.46-14.79c1.54-4.17 6.98-5.59 10.11-2.23 3.47 3.75 2.95 12.12 1.81 16.47q-1.43 5.45-6.75 5.13-4.36-.26-5.63-4.58z" fill="#fff"/>
    <path d="M517.97 52.32a2.1 2.1 0 0 1-2.1 2.1 2.1 2.1 0 0 1-2.1-2.1 2.1 2.1 0 0 1 2.1-2.1 2.1 2.1 0 0 1 2.1 2.1z" fill="#000000"/>
    <path d="M595.61 59.09a.31.31 0 0 1-.31.31H352.52a.31.31 0 0 1-.31-.31v-.36a.31.31 0 0 1 .31-.31H595.3a.31.31 0 0 1 .31.31v.36zM77.98 58.94a.47.47 0 0 1-.47.47H5.87a.47.47 0 0 1-.47-.47v-.04a.47.47 0 0 1 .47-.47h71.64a.47.47 0 0 1 .47.47v.04zM272.81 58.53l-3.03.83H141.23l-3.04-.87 134.62.04z" fill="#5f6365"/>
    <path d="m269.78 59.36 3.03-.83 73.3-.03q.25 0 .25.25v.32q0 .25-.25.25l-76.33.04zM138.19 58.49l3.04.87-55.62-.06q-.29 0-.29-.29v-.27q0-.23.23-.23l52.64-.02z" fill="#000000"/>
    <path d="M135.49 67.4a1.02 1.02 0 0 1 1-1.04h.14a3.84 2.3-1.1 0 1 3.89 2.22v.34a3.84 2.3-1.1 0 1-3.79 2.38h-.14a1.02 1.02 0 0 1-1.04-1l-.06-2.9zM323.36 67.3a1.01 1.01 0 0 1 1.02-1l.56.01a3.29 2.3.7 0 1 3.26 2.34v.34a3.29 2.3.7 0 1-3.32 2.26l-.56-.01a1.01 1.01 0 0 1-1-1.02l.04-2.92zM494.01 71.46q.05.21-.08.27-.24.12-.3-.15-.05-.23.12-.41.24-.27.29-.63.22-1.61-.27-3.12-.34-1.03.74-.97l2.9.14a1.13 1.11 75.6 0 1 .9.54q1.56 2.54-.9 4.02a.7.69-61.3 0 1-.3.09l-2.97.04q-.18 0-.13.18zM169.3 68.82q1.18 1.23.94 2.75-.06.36-.42.35l-2.42-.06q-.32 0-.26-.31.47-2.33 1.66-4.21.32-.49.51.06.13.36-.09.7a.59.59 0 0 0 .08.72zM211.29 67.3q.54 2.43 1.74 3.87.44.52-.24.55l-2.83.11q-.66.02-.45-.6l1.34-3.95a.23.23 0 0 1 .44.02zM278.33 67.45q1.01 1.7 1.49 3.83.14.63-.51.63l-2.14-.01a.7.7 0 0 1-.59-1.07q1.01-1.61 1.25-3.28.1-.75.5-.1z" fill="#fff"/>
  </g>
</svg>