<?xml version="1.0" encoding="utf-8"?>
<svg xmlns="http://www.w3.org/2000/svg" height="57.000000pt" preserveAspectRatio="xMidYMid meet" version="1.0" viewBox="0 0 578.000000 57.000000" width="578.000000pt">

<g fill="#000000" stroke="none" transform="translate(0.000000,57.000000) scale(0.100000,-0.100000)">
<path d="M2436 397 c-162 -378 -156 -367 -190 -382 -29 -13 -25 -13 64 -14 90&#xA;0 93 0 63 14 -40 17 -42 38 -11 112 l22 53 107 0 107 0 21 -62 c27 -81 27 -86&#xA;-11 -103 -31 -13 -26 -14 82 -15 l115 0 -31 19 c-18 11 -36 25 -40 33 -5 7&#xA;-51 123 -104 258 -59 150 -102 246 -111 247 -10 2 -35 -47 -83 -160z m103 -75&#xA;c23 -56 41 -105 41 -107 0 -3 -41 -5 -91 -5 -69 0 -90 3 -86 13 23 56 91 206&#xA;93 204 1 -1 21 -48 43 -105z"/>
<path d="M35 539 c53 -16 55 -24 55 -269 0 -248 -1 -252 -60 -263 -14 -2 22&#xA;-4 80 -4 58 0 93 2 79 4 -57 9 -60 21 -57 243 l3 203 99 -219 c54 -120 102&#xA;-223 106 -228 5 -5 37 51 72 125 35 73 84 176 110 229 l46 95 1 -206 c1 -225&#xA;-1 -231 -59 -242 -14 -2 31 -4 100 -4 69 0 114 2 100 4 -59 11 -60 15 -60 262&#xA;0 248 4 265 58 274 15 2 -11 4 -57 3 l-85 -1 -95 -202 c-53 -111 -99 -203&#xA;-102 -203 -4 0 -48 92 -99 205 l-93 205 -86 -1 c-67 -1 -79 -3 -56 -10z"/>
<path d="M780 543 c59 -11 60 -15 60 -268 0 -253 -1 -257 -60 -268 -14 -2 31&#xA;-4 100 -4 69 0 114 2 100 4 -59 11 -60 15 -60 268 0 253 1 257 60 268 14 2&#xA;-31 4 -100 4 -69 0 -114 -2 -100 -4z"/>
<path d="M1010 541 c0 -5 12 -11 28 -14 15 -3 40 -15 55 -27 l27 -21 0 -218&#xA;c0 -238 -1 -243 -60 -254 -14 -2 22 -4 80 -4 58 0 94 2 80 4 -58 11 -60 19&#xA;-60 226 l0 189 81 -98 c44 -55 122 -150 172 -211 51 -62 98 -113 105 -113 9 0&#xA;12 57 12 253 0 277 0 279 60 290 14 2 -22 4 -80 4 -58 0 -93 -2 -79 -4 56 -9&#xA;60 -23 57 -222 l-3 -182 -33 43 c-18 24 -92 116 -165 205 l-132 163 -72 0&#xA;c-40 0 -73 -4 -73 -9z"/>
<path d="M1657 530 c20 -12 68 -73 128 -162 l95 -143 0 -91 c0 -99 -9 -117&#xA;-60 -127 -14 -2 31 -4 100 -4 69 0 114 2 100 4 -51 10 -60 29 -60 125 l0 90&#xA;81 131 c95 154 104 165 144 183 27 12 21 13 -70 13 -79 0 -94 -3 -72 -11 42&#xA;-15 35 -51 -34 -163 -33 -55 -61 -101 -63 -102 -6 -6 -135 196 -141 220 -7 25&#xA;6 42 40 50 11 2 -34 5 -100 6 l-120 1 32 -20z"/>
<path d="M2800 541 c0 -5 12 -11 28 -14 15 -3 40 -15 55 -27 l27 -21 0 -218&#xA;c0 -238 -1 -243 -60 -254 -14 -2 22 -4 80 -5 73 0 95 2 71 8 -18 4 -37 14 -42&#xA;22 -5 7 -9 98 -9 201 l0 188 171 -208 c94 -114 177 -209 185 -211 12 -3 14 37&#xA;14 251 0 277 0 279 60 290 14 2 -22 4 -80 4 -58 0 -93 -2 -79 -4 56 -9 60 -23&#xA;57 -220 l-3 -180 -165 204 -165 203 -72 0 c-40 0 -73 -4 -73 -9z"/>
<path d="M3446 535 c32 -14 49 -48 205 -428 64 -155 62 -157 180 143 81 204&#xA;103 250 130 273 l33 27 -89 0 c-86 -1 -89 -1 -57 -15 17 -8 32 -21 32 -30 0&#xA;-14 -136 -374 -144 -382 -5 -5 -156 365 -156 382 0 9 15 22 33 30 30 13 25 14&#xA;-83 14 -106 -1 -113 -2 -84 -14z"/>
<path d="M4050 543 c59 -11 60 -15 60 -268 0 -253 -1 -257 -60 -268 -14 -2 31&#xA;-5 100 -5 83 0 116 3 97 8 -58 18 -57 13 -57 265 0 253 1 257 60 268 14 2 -31&#xA;4 -100 4 -69 0 -114 -2 -100 -4z"/>
<path d="M4320 543 c59 -11 60 -15 60 -268 0 -253 -1 -257 -60 -268 -14 -2 73&#xA;-5 192 -6 l217 -1 17 58 c8 31 18 65 20 75 9 30 -14 18 -31 -17 -32 -67 -57&#xA;-81 -156 -85 -61 -2 -94 1 -104 9 -12 10 -15 52 -15 240 0 247 -1 242 57 260&#xA;19 5 -14 8 -97 8 -69 0 -114 -3 -100 -5z"/>
<path d="M4828 540 c18 -4 36 -11 40 -15 4 -3 8 -113 10 -242 3 -258 1 -267&#xA;-57 -276 -14 -2 72 -5 191 -6 l217 -1 17 58 c8 31 18 65 20 75 9 30 -15 18&#xA;-30 -16 -7 -17 -26 -43 -41 -57 -23 -22 -37 -25 -116 -29 -61 -2 -94 1 -104 9&#xA;-12 10 -15 52 -15 240 0 248 1 252 60 263 14 2 -31 4 -100 5 -81 0 -113 -3&#xA;-92 -8z"/>
<path d="M5329 540 c18 -4 37 -14 42 -22 5 -7 9 -117 9 -244 0 -252 -1 -256&#xA;-60 -267 -14 -2 74 -4 194 -3 l219 1 23 68 c12 37 19 67 15 67 -4 0 -21 -20&#xA;-39 -45 -39 -56 -62 -65 -162 -65 -116 0 -110 -7 -110 126 l0 114 83 0 c45 0&#xA;89 -5 97 -10 8 -5 20 -24 27 -42 10 -29 11 -22 11 67 0 89 -1 96 -11 67 -7&#xA;-18 -19 -37 -27 -42 -8 -5 -52 -10 -97 -10 l-83 0 0 110 0 110 101 0 c55 0&#xA;109 -4 119 -10 10 -5 24 -26 30 -45 6 -19 16 -35 21 -35 11 0 11 12 3 74 l-7&#xA;46 -216 -1 c-131 -1 -203 -4 -182 -9z"/>
</g>
</svg>