<?xml version="1.0" encoding="utf-8"?>
<svg xmlns="http://www.w3.org/2000/svg" height="220px" style="shape-rendering:geometricPrecision; text-rendering:geometricPrecision; image-rendering:optimizeQuality; fill-rule:evenodd; clip-rule:evenodd" version="1.1" width="91px">
<g>
    <path d="M 59.5,21.5 C 59.5,19.8333 59.5,18.1667 59.5,16.5C 63.9902,8.64106 70.6569,4.64106 79.5,4.5C 76.4363,14.5742 69.7696,20.2409 59.5,21.5 Z" fill="#231f20" style="opacity:1"/>
  </g>
<g>
    <path d="M 59.5,16.5 C 59.5,18.1667 59.5,19.8333 59.5,21.5C 57.7059,23.7966 55.7059,25.9633 53.5,28C 53.7284,28.3988 54.0618,28.5654 54.5,28.5C 53.4324,29.4345 52.099,29.7678 50.5,29.5C 52.795,26.7029 55.295,24.0362 58,21.5C 58.1981,19.6183 58.6981,17.9516 59.5,16.5 Z" fill="#6c696a" style="opacity:1"/>
  </g>
<g>
    <path d="M 50.5,29.5 C 52.099,29.7678 53.4324,29.4345 54.5,28.5C 60.5692,27.1058 66.5692,27.4391 72.5,29.5C 65.9829,37.6169 57.8162,39.9502 48,36.5C 46.2894,36.4393 44.956,37.1059 44,38.5C 42.2912,41.4185 40.4579,44.2518 38.5,47C 38.8333,47.1667 39.1667,47.3333 39.5,47.5C 45.5979,43.6503 52.2646,42.4837 59.5,44C 53.3759,53.2197 44.7092,57.3864 33.5,56.5C 30.5736,60.9586 28.907,65.6253 28.5,70.5C 33.5788,64.9087 39.9121,61.5754 47.5,60.5C 45.6241,68.7406 40.9574,74.9073 33.5,79C 27.9755,78.0924 24.4755,80.2591 23,85.5C 21.2944,93.0974 20.6278,100.764 21,108.5C 21.2428,103.194 22.5762,98.1944 25,93.5C 28.8666,89.2984 33.0332,85.4651 37.5,82C 38.6001,81.5683 39.2668,82.0683 39.5,83.5C 38.2838,95.9438 32.1171,104.944 21,110.5C 20.2422,116.891 20.5755,123.224 22,129.5C 24.5958,120.311 29.2625,112.311 36,105.5C 38.6881,118.444 35.0214,129.111 25,137.5C 24.7747,145.182 26.4414,152.515 30,159.5C 29.8253,149.532 32.1586,140.199 37,131.5C 38.5272,133.221 39.5272,135.221 40,137.5C 40.6667,143.5 40.6667,149.5 40,155.5C 38.135,159.351 36.3017,163.184 34.5,167C 36.3388,171.842 38.8388,176.342 42,180.5C 42.8113,181.96 43.6446,182.293 44.5,181.5C 40.9954,172.186 40.9954,162.852 44.5,153.5C 52.6842,163.487 54.6842,174.654 50.5,187C 53.6966,193.538 58.6966,197.871 65.5,200C 63.3834,198.269 61.8834,196.102 61,193.5C 58.7604,187.245 57.9271,180.912 58.5,174.5C 68.9214,181.679 73.7547,191.679 73,204.5C 78.4444,207.481 84.2777,209.148 90.5,209.5C 90.5,210.167 90.5,210.833 90.5,211.5C 84.5923,211.185 78.9256,209.852 73.5,207.5C 70.591,210.876 66.9243,213.376 62.5,215C 57.5,215.667 52.5,215.667 47.5,215C 44.7796,214.203 42.2796,213.037 40,211.5C 39.4926,210.004 39.9926,208.837 41.5,208C 49.2103,202.399 57.5436,201.065 66.5,204C 61.4812,201.157 56.8145,197.824 52.5,194C 40.0319,199.057 28.8653,196.891 19,187.5C 18.4926,186.004 18.9926,184.837 20.5,184C 25.4285,182.582 30.4285,182.249 35.5,183C 38.9738,184.419 42.3071,185.752 45.5,187C 41.5,182 37.5,177 33.5,172C 29.8606,172.278 26.1939,172.278 22.5,172C 14.241,168.24 8.57432,162.073 5.5,153.5C 16.3964,151.697 24.5631,155.697 30,165.5C 27.6574,158.183 24.9907,150.85 22,143.5C 16.3164,142.657 11.6497,139.99 8,135.5C 4.344,130.517 1.51066,125.184 -0.5,119.5C -0.5,118.167 -0.5,116.833 -0.5,115.5C 9.32294,118.486 16.1563,124.819 20,134.5C 19.3453,127.884 18.6786,121.218 18,114.5C 14.8472,113.214 12.1805,111.214 10,108.5C 4.97486,99.7428 3.14153,90.4094 4.5,80.5C 11.6485,85.8045 15.9818,92.8045 17.5,101.5C 17.372,103.655 17.872,105.655 19,107.5C 19.49,106.207 19.6567,104.873 19.5,103.5C 19.5023,98.9786 19.8356,94.4786 20.5,90C 20.1667,88.5 19.8333,87 19.5,85.5C 15.8056,82.7838 13.6389,79.1172 13,74.5C 12.3333,67.8333 12.3333,61.1667 13,54.5C 13.2492,53.376 13.7492,52.376 14.5,51.5C 17.6338,53.7545 19.8004,56.7545 21,60.5C 22.1518,66.7697 22.8185,73.1031 23,79.5C 24.5347,73.7295 26.368,68.0628 28.5,62.5C 21.6072,50.2505 22.1072,38.2505 30,26.5C 32.0814,28.7134 33.4147,31.3801 34,34.5C 35.0617,41.2774 34.2284,47.7774 31.5,54C 32.788,54.2387 33.788,53.7387 34.5,52.5C 36.0068,48.1554 38.1735,44.1554 41,40.5C 36.5969,26.3732 39.9302,14.3732 51,4.5C 53.2939,14.8307 51.4606,24.4974 45.5,33.5C 47.4981,33.2363 49.1648,31.903 50.5,29.5 Z" fill="#242021" style="opacity:1"/>
  </g>
<g>
    <path d="M 34.5,52.5 C 36.8919,51.6322 37.0586,52.2988 35,54.5C 34.5357,53.9056 34.369,53.2389 34.5,52.5 Z" fill="#a4a3a3" style="opacity:1"/>
  </g>
<g>
    <path d="M 17.5,101.5 C 18.1667,102.167 18.8333,102.833 19.5,103.5C 19.6567,104.873 19.49,106.207 19,107.5C 17.872,105.655 17.372,103.655 17.5,101.5 Z" fill="#868585" style="opacity:1"/>
  </g>

</svg>