<?xml version="1.0" encoding="utf-8"?>
<svg xmlns="http://www.w3.org/2000/svg" height="209" version="1.1" viewBox="0 0 500 209" width="500">
  <path d="M 336 146.015 C 310.185 147.687, 284.427 151.839, 249.500 159.960 C 189.992 173.796, 152.801 178.642, 113.109 177.730 C 75.378 176.864, 48.320 170.279, 17.449 154.451 C 11.702 151.504, 7 149.533, 7 150.070 C 7 150.607, 10.713 154.933, 15.250 159.682 C 38.588 184.109, 70.692 199.523, 108.576 204.489 C 123.434 206.437, 156.107 206.442, 174.500 204.501 C 193.751 202.468, 214.820 198.828, 238.500 193.443 C 304.634 178.403, 335.620 173.984, 374.722 174.020 C 414.262 174.055, 441.430 179.952, 473.827 195.531 C 481.246 199.098, 487.493 201.841, 487.709 201.625 C 488.407 200.926, 478.200 189.867, 471.256 183.799 C 448.996 164.349, 420.620 152.022, 387.884 147.580 C 374.051 145.703, 351.382 145.019, 336 146.015" fill="#0e0e0e" fill-rule="evenodd" stroke="none"/>
  <path d="M 81.072 20.497 C 65.316 24.051, 52.449 33.199, 46.733 44.911 C 43.681 51.163, 43.516 52.089, 43.508 63.018 C 43.500 74.020, 43.647 74.833, 46.781 81.202 C 52.999 93.840, 62.058 99.456, 87.712 106.575 C 111.965 113.305, 113.934 114.003, 117.497 117.131 C 121.352 120.516, 121.885 123.292, 119.369 126.883 C 117.002 130.263, 111.972 132, 104.552 132 C 93.805 132, 87.335 128.167, 85.458 120.689 L 84.783 118 62.417 118 L 40.050 118 40.623 121.250 C 44.636 144.005, 57.810 157.998, 80.565 163.672 C 90.523 166.156, 115.684 166.161, 126.254 163.681 C 145.897 159.073, 159.157 147.754, 163.397 131.976 C 164.847 126.581, 164.869 126.764, 164.934 144.322 L 165 162.144 170.480 161.459 C 173.493 161.083, 183.056 159.588, 191.730 158.137 L 207.500 155.500 208 119.500 C 208.436 88.144, 208.666 84.046, 209.785 87.733 C 210.820 91.144, 241.271 143.259, 244.030 146.342 C 244.445 146.805, 253.270 145.381, 263.642 143.177 C 274.014 140.973, 285.762 138.641, 289.750 137.995 L 297 136.819 297 79.390 L 297 21.961 275.250 22.230 L 253.500 22.500 253.500 62.118 L 253.500 101.735 251.389 96.118 C 250.228 93.028, 240.044 75.200, 228.759 56.500 L 208.241 22.500 186.621 22.230 L 165 21.961 164.933 65.730 C 164.876 103.275, 164.681 108.906, 163.561 105.324 C 161.644 99.194, 158.586 94.736, 152.453 89.131 C 146.125 83.348, 137.087 79.485, 119.041 74.850 C 101.059 70.232, 92.409 67.136, 89.581 64.309 C 83.385 58.113, 89.064 51, 100.207 51 C 110.102 51, 116.233 54.230, 117.528 60.126 L 118.159 63 139.579 63 L 161 63 161 59.968 C 161 55.574, 157.319 45.324, 154.018 40.526 C 148.076 31.890, 140.542 26.539, 128.500 22.402 C 121.257 19.913, 118.939 19.625, 104 19.350 C 92.236 19.134, 85.655 19.463, 81.072 20.497 M 303 79.125 L 303 136.250 305.750 135.702 C 307.262 135.400, 315.025 134.636, 323 134.004 C 330.975 133.372, 339.404 132.636, 341.732 132.369 L 345.964 131.883 346.232 108.191 L 346.500 84.500 348.500 89.623 C 349.600 92.440, 355.635 103.263, 361.910 113.673 L 373.320 132.600 384.410 133.804 C 398.883 135.376, 412.042 138.214, 424.269 142.400 C 430.953 144.689, 434.287 145.413, 434.583 144.641 C 434.822 144.013, 434.902 116.275, 434.759 83 L 434.500 22.500 412.750 22.230 L 391 21.961 390.942 60.730 L 390.885 99.500 388.430 94.095 C 387.081 91.122, 376.918 73.684, 365.847 55.345 L 345.718 22 324.359 22 L 303 22 303 79.125" fill="#030303" fill-rule="evenodd" stroke="none"/>
</svg>